<mxfile host="app.diagrams.net" modified="2023-08-18T18:52:42.427Z" agent="Mozilla/5.0 (X11; Ubuntu; Linux x86_64; rv:98.0) Gecko/20100101 Firefox/98.0" etag="l6ZR9eQmky_6s-s1DCYF" version="21.6.8" type="device">
  <diagram name="第 1 页" id="Y-y1O7PK19iAqBLVmCbd">
    <mxGraphModel dx="2074" dy="965" grid="1" gridSize="10" guides="1" tooltips="1" connect="1" arrows="1" fold="1" page="1" pageScale="1" pageWidth="850" pageHeight="1100" math="1" shadow="0">
      <root>
        <mxCell id="0" />
        <mxCell id="1" parent="0" />
        <mxCell id="94SgYftM5BOZFwZWVgzs-30" value="" style="swimlane;startSize=0;" parent="1" vertex="1">
          <mxGeometry x="339" y="783" width="261" height="220" as="geometry" />
        </mxCell>
        <mxCell id="m4O-Ap4ZzIUyVngDRQE1-1" value="$$\begin{aligned}&amp;amp;\alpha\vec{X}+\beta\vec{Y}\\(\text{SIM}&amp;amp;\text{D } \text{lanes} = KK)\end{aligned}$$" style="whiteSpace=wrap;html=1;aspect=fixed;fillColor=#dae8fc;strokeColor=#6c8ebf;" parent="94SgYftM5BOZFwZWVgzs-30" vertex="1">
          <mxGeometry x="56" y="30" width="160" height="160" as="geometry" />
        </mxCell>
        <mxCell id="m4O-Ap4ZzIUyVngDRQE1-3" value="" style="edgeStyle=orthogonalEdgeStyle;rounded=0;orthogonalLoop=1;jettySize=auto;html=1;exitX=0;exitY=0.5;exitDx=0;exitDy=0;entryX=1;entryY=0.5;entryDx=0;entryDy=0;" parent="1" source="m4O-Ap4ZzIUyVngDRQE1-1" target="ua62fRcVT8bWqjoNtd_n-2" edge="1">
          <mxGeometry relative="1" as="geometry">
            <mxPoint x="390" y="450" as="sourcePoint" />
            <mxPoint x="160" y="450" as="targetPoint" />
          </mxGeometry>
        </mxCell>
        <mxCell id="ua62fRcVT8bWqjoNtd_n-1" value="Host" style="text;html=1;strokeColor=none;fillColor=none;align=center;verticalAlign=middle;whiteSpace=wrap;rounded=0;" parent="1" vertex="1">
          <mxGeometry x="211" y="605" width="60" height="30" as="geometry" />
        </mxCell>
        <mxCell id="ua62fRcVT8bWqjoNtd_n-2" value="$$\vec{Z}$$" style="rounded=1;whiteSpace=wrap;html=1;fillColor=#e1d5e7;strokeColor=#9673a6;" parent="1" vertex="1">
          <mxGeometry x="70" y="873" width="80" height="40" as="geometry" />
        </mxCell>
        <mxCell id="ua62fRcVT8bWqjoNtd_n-19" value="Host&lt;br&gt;DRAM" style="text;html=1;strokeColor=none;fillColor=none;align=center;verticalAlign=middle;whiteSpace=wrap;rounded=0;" parent="1" vertex="1">
          <mxGeometry x="81" y="604" width="60" height="30" as="geometry" />
        </mxCell>
        <mxCell id="ua62fRcVT8bWqjoNtd_n-20" style="edgeStyle=orthogonalEdgeStyle;rounded=0;orthogonalLoop=1;jettySize=auto;html=1;exitX=1;exitY=0.5;exitDx=0;exitDy=0;entryX=0;entryY=0.5;entryDx=0;entryDy=0;" parent="1" source="ua62fRcVT8bWqjoNtd_n-27" target="ua62fRcVT8bWqjoNtd_n-29" edge="1">
          <mxGeometry relative="1" as="geometry">
            <mxPoint x="111" y="715" as="sourcePoint" />
            <mxPoint x="211" y="575" as="targetPoint" />
          </mxGeometry>
        </mxCell>
        <mxCell id="ua62fRcVT8bWqjoNtd_n-21" style="edgeStyle=orthogonalEdgeStyle;rounded=0;orthogonalLoop=1;jettySize=auto;html=1;exitX=1;exitY=0.5;exitDx=0;exitDy=0;entryX=0;entryY=0.5;entryDx=0;entryDy=0;" parent="1" source="ua62fRcVT8bWqjoNtd_n-22" target="ua62fRcVT8bWqjoNtd_n-28" edge="1">
          <mxGeometry relative="1" as="geometry">
            <mxPoint x="211" y="580" as="targetPoint" />
          </mxGeometry>
        </mxCell>
        <mxCell id="ua62fRcVT8bWqjoNtd_n-22" value="$$\begin{aligned}\vec{X}\end{aligned}$$" style="rounded=1;whiteSpace=wrap;html=1;fillColor=#d5e8d4;strokeColor=#82b366;" parent="1" vertex="1">
          <mxGeometry x="71" y="640" width="80" height="40" as="geometry" />
        </mxCell>
        <mxCell id="ua62fRcVT8bWqjoNtd_n-23" style="edgeStyle=orthogonalEdgeStyle;rounded=0;orthogonalLoop=1;jettySize=auto;html=1;exitX=1;exitY=0.5;exitDx=0;exitDy=0;entryX=0.5;entryY=0;entryDx=0;entryDy=0;" parent="1" source="ua62fRcVT8bWqjoNtd_n-28" target="ua62fRcVT8bWqjoNtd_n-24" edge="1">
          <mxGeometry relative="1" as="geometry">
            <mxPoint x="291" y="580" as="sourcePoint" />
          </mxGeometry>
        </mxCell>
        <mxCell id="ua62fRcVT8bWqjoNtd_n-24" value="$$\begin{aligned}\vec{X}\end{aligned}$$" style="rounded=1;whiteSpace=wrap;html=1;direction=north;fillColor=#d5e8d4;strokeColor=#82b366;" parent="1" vertex="1">
          <mxGeometry x="321" y="640" width="80" height="40" as="geometry" />
        </mxCell>
        <mxCell id="ua62fRcVT8bWqjoNtd_n-25" value="Device&lt;br&gt;DRAM" style="text;html=1;align=center;verticalAlign=middle;resizable=0;points=[];autosize=1;strokeColor=none;fillColor=none;" parent="1" vertex="1">
          <mxGeometry x="331" y="600" width="60" height="40" as="geometry" />
        </mxCell>
        <mxCell id="ua62fRcVT8bWqjoNtd_n-26" value="" style="edgeStyle=orthogonalEdgeStyle;rounded=0;orthogonalLoop=1;jettySize=auto;html=1;exitX=0.5;exitY=1;exitDx=0;exitDy=0;" parent="1" source="ua62fRcVT8bWqjoNtd_n-24" edge="1">
          <mxGeometry relative="1" as="geometry">
            <mxPoint x="391" y="691" as="sourcePoint" />
            <mxPoint x="530" y="809" as="targetPoint" />
            <Array as="points">
              <mxPoint x="401" y="659" />
              <mxPoint x="530" y="659" />
            </Array>
          </mxGeometry>
        </mxCell>
        <mxCell id="ua62fRcVT8bWqjoNtd_n-27" value="$$\begin{aligned}\vec{Y}\end{aligned}$$" style="rounded=1;whiteSpace=wrap;html=1;fillColor=#ffe6cc;strokeColor=#d79b00;" parent="1" vertex="1">
          <mxGeometry x="70" y="707" width="80" height="40" as="geometry" />
        </mxCell>
        <mxCell id="ua62fRcVT8bWqjoNtd_n-28" value="Pre-process&lt;br style=&quot;border-color: var(--border-color);&quot;&gt;(zero-padding)" style="rounded=1;whiteSpace=wrap;html=1;fillColor=#d5e8d4;strokeColor=#82b366;" parent="1" vertex="1">
          <mxGeometry x="181" y="640" width="120" height="40" as="geometry" />
        </mxCell>
        <mxCell id="ua62fRcVT8bWqjoNtd_n-29" value="Pre-process&lt;br style=&quot;border-color: var(--border-color);&quot;&gt;(zero-padding)" style="rounded=1;whiteSpace=wrap;html=1;fillColor=#ffe6cc;strokeColor=#d79b00;" parent="1" vertex="1">
          <mxGeometry x="181" y="707" width="120" height="40" as="geometry" />
        </mxCell>
        <mxCell id="ua62fRcVT8bWqjoNtd_n-30" value="$$\begin{aligned}\vec{Y}\end{aligned}$$" style="rounded=1;whiteSpace=wrap;html=1;direction=north;fillColor=#ffe6cc;strokeColor=#d79b00;" parent="1" vertex="1">
          <mxGeometry x="321" y="707" width="80" height="40" as="geometry" />
        </mxCell>
        <mxCell id="ua62fRcVT8bWqjoNtd_n-31" style="edgeStyle=orthogonalEdgeStyle;rounded=0;orthogonalLoop=1;jettySize=auto;html=1;exitX=1;exitY=0.5;exitDx=0;exitDy=0;" parent="1" source="ua62fRcVT8bWqjoNtd_n-29" edge="1">
          <mxGeometry relative="1" as="geometry">
            <mxPoint x="311" y="665" as="sourcePoint" />
            <mxPoint x="321" y="727" as="targetPoint" />
          </mxGeometry>
        </mxCell>
        <mxCell id="ua62fRcVT8bWqjoNtd_n-32" value="" style="edgeStyle=orthogonalEdgeStyle;rounded=0;orthogonalLoop=1;jettySize=auto;html=1;exitX=0.5;exitY=1;exitDx=0;exitDy=0;" parent="1" source="ua62fRcVT8bWqjoNtd_n-30" edge="1">
          <mxGeometry relative="1" as="geometry">
            <mxPoint x="411" y="661" as="sourcePoint" />
            <mxPoint x="420" y="809" as="targetPoint" />
            <Array as="points">
              <mxPoint x="420" y="727" />
            </Array>
          </mxGeometry>
        </mxCell>
        <mxCell id="ua62fRcVT8bWqjoNtd_n-33" value="" style="endArrow=none;html=1;rounded=0;" parent="1" edge="1">
          <mxGeometry width="50" height="50" relative="1" as="geometry">
            <mxPoint x="414" y="771" as="sourcePoint" />
            <mxPoint x="430" y="766" as="targetPoint" />
          </mxGeometry>
        </mxCell>
        <mxCell id="ua62fRcVT8bWqjoNtd_n-34" value="$$KK$$" style="text;html=1;align=center;verticalAlign=middle;resizable=0;points=[];autosize=1;strokeColor=none;fillColor=none;" parent="1" vertex="1">
          <mxGeometry x="410" y="744" width="70" height="30" as="geometry" />
        </mxCell>
        <mxCell id="ua62fRcVT8bWqjoNtd_n-35" value="" style="endArrow=none;html=1;rounded=0;" parent="1" edge="1">
          <mxGeometry width="50" height="50" relative="1" as="geometry">
            <mxPoint x="522" y="772" as="sourcePoint" />
            <mxPoint x="538" y="767" as="targetPoint" />
          </mxGeometry>
        </mxCell>
        <mxCell id="ua62fRcVT8bWqjoNtd_n-36" value="$$KK$$" style="text;html=1;align=center;verticalAlign=middle;resizable=0;points=[];autosize=1;strokeColor=none;fillColor=none;" parent="1" vertex="1">
          <mxGeometry x="518" y="745" width="70" height="30" as="geometry" />
        </mxCell>
        <mxCell id="ua62fRcVT8bWqjoNtd_n-39" value="" style="endArrow=none;html=1;rounded=0;" parent="1" edge="1">
          <mxGeometry width="50" height="50" relative="1" as="geometry">
            <mxPoint x="258" y="901" as="sourcePoint" />
            <mxPoint x="283" y="885" as="targetPoint" />
          </mxGeometry>
        </mxCell>
        <mxCell id="ua62fRcVT8bWqjoNtd_n-40" value="$$KK$$" style="text;html=1;align=center;verticalAlign=middle;resizable=0;points=[];autosize=1;strokeColor=none;fillColor=none;" parent="1" vertex="1">
          <mxGeometry x="238" y="860" width="70" height="30" as="geometry" />
        </mxCell>
        <mxCell id="ki10WFZCdkfZOHp2psxk-1" value="$$\begin{aligned}\vec{X}\end{aligned}$$" style="rounded=1;whiteSpace=wrap;html=1;fillColor=none;strokeColor=none;" parent="1" vertex="1">
          <mxGeometry x="50" y="424.26" width="27" height="40" as="geometry" />
        </mxCell>
        <mxCell id="ki10WFZCdkfZOHp2psxk-2" value="zero padding" style="text;html=1;align=center;verticalAlign=middle;resizable=0;points=[];autosize=1;strokeColor=none;fillColor=none;" parent="1" vertex="1">
          <mxGeometry x="445" y="475.26" width="90" height="30" as="geometry" />
        </mxCell>
        <mxCell id="ki10WFZCdkfZOHp2psxk-3" value="$$X_{0,...,KK-1}$$" style="rounded=0;whiteSpace=wrap;html=1;fillColor=#d5e8d4;strokeColor=#82b366;" parent="1" vertex="1">
          <mxGeometry x="76" y="426.26" width="126" height="40" as="geometry" />
        </mxCell>
        <mxCell id="ki10WFZCdkfZOHp2psxk-4" value="$$X_{KK,...,2KK-1}$$" style="rounded=0;whiteSpace=wrap;html=1;fillColor=#d5e8d4;strokeColor=#82b366;" parent="1" vertex="1">
          <mxGeometry x="200" y="426.26" width="129" height="40" as="geometry" />
        </mxCell>
        <mxCell id="ki10WFZCdkfZOHp2psxk-5" value="..." style="rounded=0;whiteSpace=wrap;html=1;fillColor=#d5e8d4;strokeColor=#82b366;" parent="1" vertex="1">
          <mxGeometry x="329" y="426.26" width="117" height="40" as="geometry" />
        </mxCell>
        <mxCell id="ki10WFZCdkfZOHp2psxk-6" value="$$X_{(K-1)*KK,...,N-1}&amp;nbsp; &amp;nbsp; $$" style="rounded=0;whiteSpace=wrap;html=1;fillColor=#d5e8d4;strokeColor=#82b366;" parent="1" vertex="1">
          <mxGeometry x="439" y="426.26" width="100" height="40" as="geometry" />
        </mxCell>
        <mxCell id="ki10WFZCdkfZOHp2psxk-7" value="&amp;nbsp;0 ... 0" style="rounded=0;whiteSpace=wrap;html=1;fillColor=#f8cecc;strokeColor=#b85450;align=left;" parent="1" vertex="1">
          <mxGeometry x="539" y="426.26" width="36" height="40" as="geometry" />
        </mxCell>
        <mxCell id="ki10WFZCdkfZOHp2psxk-8" value="" style="shape=curlyBracket;whiteSpace=wrap;html=1;rounded=1;flipH=1;labelPosition=right;verticalLabelPosition=middle;align=left;verticalAlign=middle;rotation=90;size=0.5;direction=west;" parent="1" vertex="1">
          <mxGeometry x="122.94999999999999" y="346.83000000000004" width="30" height="123.38" as="geometry" />
        </mxCell>
        <mxCell id="ki10WFZCdkfZOHp2psxk-9" value="$$KK$$" style="text;html=1;align=center;verticalAlign=middle;resizable=0;points=[];autosize=1;strokeColor=none;fillColor=none;" parent="1" vertex="1">
          <mxGeometry x="104.94999999999999" y="373.26" width="70" height="30" as="geometry" />
        </mxCell>
        <mxCell id="ki10WFZCdkfZOHp2psxk-10" value="$$KK$$" style="text;html=1;align=center;verticalAlign=middle;resizable=0;points=[];autosize=1;strokeColor=none;fillColor=none;" parent="1" vertex="1">
          <mxGeometry x="228.95" y="372.26" width="70" height="30" as="geometry" />
        </mxCell>
        <mxCell id="ki10WFZCdkfZOHp2psxk-11" value="" style="shape=curlyBracket;whiteSpace=wrap;html=1;rounded=1;flipH=1;labelPosition=right;verticalLabelPosition=middle;align=left;verticalAlign=middle;rotation=90;size=0.5;direction=west;" parent="1" vertex="1">
          <mxGeometry x="491.87" y="340" width="30" height="135.14" as="geometry" />
        </mxCell>
        <mxCell id="ki10WFZCdkfZOHp2psxk-12" value="$$KK$$" style="text;html=1;align=center;verticalAlign=middle;resizable=0;points=[];autosize=1;strokeColor=none;fillColor=none;" parent="1" vertex="1">
          <mxGeometry x="468" y="373.30999999999995" width="70" height="30" as="geometry" />
        </mxCell>
        <mxCell id="ki10WFZCdkfZOHp2psxk-13" value="" style="endArrow=classic;html=1;rounded=0;entryX=0.5;entryY=1;entryDx=0;entryDy=0;" parent="1" edge="1">
          <mxGeometry width="50" height="50" relative="1" as="geometry">
            <mxPoint x="528" y="488.26" as="sourcePoint" />
            <mxPoint x="557" y="468.26" as="targetPoint" />
          </mxGeometry>
        </mxCell>
        <mxCell id="ki10WFZCdkfZOHp2psxk-14" value="" style="shape=curlyBracket;whiteSpace=wrap;html=1;rounded=1;flipH=1;labelPosition=right;verticalLabelPosition=middle;align=left;verticalAlign=middle;rotation=90;size=0.5;direction=west;" parent="1" vertex="1">
          <mxGeometry x="250.13" y="343.73" width="30" height="127.67" as="geometry" />
        </mxCell>
      </root>
    </mxGraphModel>
  </diagram>
</mxfile>
